<svg width="24" height="24" viewBox="0 0 24 24" fill="none" xmlns="http://www.w3.org/2000/svg">
<path d="M14.665 2.33366C14.8428 2.24474 15.0487 2.23009 15.2373 2.2929C15.4259 2.35572 15.5819 2.49088 15.6709 2.66866L17.872 7.07066C19.225 7.17466 20.0739 7.44066 20.622 8.11766C21.058 8.65666 21.198 9.32666 21.1469 10.2537H2.85295C2.80195 9.32666 2.94295 8.65666 3.37795 8.11766C3.92595 7.43966 4.77495 7.17466 6.12795 7.07066L8.32895 2.66866C8.41872 2.49229 8.57457 2.35855 8.76252 2.29658C8.95047 2.23462 9.15529 2.24945 9.33236 2.33785C9.50942 2.42625 9.64436 2.58105 9.70779 2.76851C9.77121 2.95598 9.75797 3.16091 9.67095 3.33866L7.83595 7.00866C8.31895 7.00366 8.84595 7.00366 9.42195 7.00366H14.578C15.154 7.00366 15.681 7.00366 16.1639 7.00866L14.329 3.33866C14.2401 3.1607 14.2256 2.95473 14.2886 2.76607C14.3516 2.57741 14.487 2.42251 14.665 2.33366Z" fill="black"/>
<path fill-rule="evenodd" clip-rule="evenodd" d="M3.55504 14.2607C3.37058 13.428 3.20055 12.5922 3.04504 11.7537H20.955C20.7994 12.5922 20.6294 13.428 20.445 14.2607L20.016 16.2607C19.529 18.5337 19.286 19.6697 18.461 20.3367C17.636 21.0037 16.474 21.0037 14.15 21.0037H9.85004C7.52604 21.0037 6.36404 21.0037 5.54004 20.3367C4.71404 19.6697 4.47004 18.5337 3.98404 16.2607L3.55504 14.2607ZM10 13.2537C9.80113 13.2537 9.61037 13.3327 9.46971 13.4733C9.32906 13.614 9.25004 13.8047 9.25004 14.0037C9.25004 14.2026 9.32906 14.3933 9.46971 14.534C9.61037 14.6746 9.80113 14.7537 10 14.7537H14C14.199 14.7537 14.3897 14.6746 14.5304 14.534C14.671 14.3933 14.75 14.2026 14.75 14.0037C14.75 13.8047 14.671 13.614 14.5304 13.4733C14.3897 13.3327 14.199 13.2537 14 13.2537H10Z" fill="black"/>
</svg>
