<svg width="32" height="32" viewBox="0 0 32 32" fill="none" xmlns="http://www.w3.org/2000/svg">
<path d="M21.5865 2.66666H10.4132C5.55984 2.66666 2.6665 5.55999 2.6665 10.4133V21.5733C2.6665 26.44 5.55984 29.3333 10.4132 29.3333H21.5732C26.4265 29.3333 29.3198 26.44 29.3198 21.5867V10.4133C29.3332 5.55999 26.4398 2.66666 21.5865 2.66666ZM18.3865 20C18.7732 20.3867 18.7732 21.0267 18.3865 21.4133C18.1865 21.6133 17.9332 21.7067 17.6798 21.7067C17.4265 21.7067 17.1732 21.6133 16.9732 21.4133L12.2665 16.7067C11.8798 16.32 11.8798 15.68 12.2665 15.2933L16.9732 10.5867C17.3598 10.2 17.9998 10.2 18.3865 10.5867C18.7732 10.9733 18.7732 11.6133 18.3865 12L14.3865 16L18.3865 20Z" fill="#292D32"/>
</svg>
