<svg width="4" height="5" viewBox="0 0 4 5" fill="none" xmlns="http://www.w3.org/2000/svg">
<path d="M1.0399 1.78988C1.0399 2.25196 1.26395 2.57016 1.77209 2.80984C2.16141 2.99279 2.22164 3.04726 2.22164 3.21294C2.22164 3.44069 2.04979 3.54347 1.66972 3.54347C1.38276 3.54347 1.11595 3.49866 0.808031 3.39937C0.808031 3.39937 0.682025 4.20454 0.67627 4.24297C0.894364 4.29066 1.08944 4.33424 1.6765 4.3511C2.69113 4.3511 3.15938 3.96486 3.15938 3.1303C3.15938 2.62813 2.96349 2.33357 2.48166 2.11219C2.07878 1.92677 2.03211 1.88608 2.03211 1.71526C2.03211 1.51793 2.19224 1.41638 2.50284 1.41638C2.69133 1.41638 2.9491 1.43714 3.19371 1.47188L3.3304 0.624375C3.08168 0.584909 2.70428 0.553253 2.48454 0.553253C1.40887 0.553253 1.03681 1.11463 1.0399 1.78988Z" fill="white"/>
</svg>
