<svg width="26" height="26" viewBox="0 0 26 26" fill="none" xmlns="http://www.w3.org/2000/svg">
<path d="M3.08333 25.75C2.30417 25.75 1.63715 25.4726 1.08229 24.9177C0.527431 24.3628 0.25 23.6958 0.25 22.9167V3.08333C0.25 2.30417 0.527431 1.63715 1.08229 1.08229C1.63715 0.527431 2.30417 0.25 3.08333 0.25H22.9167C23.6958 0.25 24.3628 0.527431 24.9177 1.08229C25.4726 1.63715 25.75 2.30417 25.75 3.08333V22.9167C25.75 23.6958 25.4726 24.3628 24.9177 24.9177C24.3628 25.4726 23.6958 25.75 22.9167 25.75H3.08333ZM3.08333 22.9167H22.9167V3.08333H3.08333V22.9167Z" fill="#1D1B20"/>
</svg>
