<svg width="24" height="25" viewBox="0 0 24 25" fill="none" xmlns="http://www.w3.org/2000/svg">
<path d="M8.39001 19.4131V9.2531C8.39001 8.8531 8.51001 8.4631 8.73001 8.1331L11.46 4.0731C11.89 3.4231 12.96 2.9631 13.87 3.3031C14.85 3.6331 15.5 4.7331 15.29 5.7131L14.77 8.9831C14.73 9.2831 14.81 9.5531 14.98 9.7631C15.15 9.9531 15.4 10.0731 15.67 10.0731H19.78C20.57 10.0731 21.25 10.3931 21.65 10.9531C22.03 11.4931 22.1 12.1931 21.85 12.9031L19.39 20.3931C19.08 21.6331 17.73 22.6431 16.39 22.6431H12.49C11.82 22.6431 10.88 22.4131 10.45 21.9831L9.17001 20.9931C8.68001 20.6231 8.39001 20.0331 8.39001 19.4131Z" fill="#222222"/>
<path d="M5.21 7.3031H4.18C2.63 7.3031 2 7.9031 2 9.3831V19.4431C2 20.9231 2.63 21.5231 4.18 21.5231H5.21C6.76 21.5231 7.39 20.9231 7.39 19.4431V9.3831C7.39 7.9031 6.76 7.3031 5.21 7.3031Z" fill="#222222"/>
</svg>
