<svg width="169" height="79" viewBox="0 0 169 79" fill="none" xmlns="http://www.w3.org/2000/svg">
<rect x="2.10293" y="1.16176" width="164.971" height="76.6765" stroke="#964B00" stroke-width="2.32353"/>
<mask id="mask0_11_11562" style="mask-type:alpha" maskUnits="userSpaceOnUse" x="28" y="48" width="104" height="27">
<rect x="28.8236" y="48.4622" width="102.235" height="25.5588" fill="#D9D9D9"/>
</mask>
<g mask="url(#mask0_11_11562)">
<path d="M29.1741 23.3278V10.0956H77.7213V23.3278H60.8087V71.4368H45.9991V23.3278H29.1741ZM92.6835 40.7662C92.6835 44.5051 93.5306 47.7474 95.2248 50.4931C96.9189 53.1805 99.1389 55.2252 101.885 56.6273C104.689 58.0293 107.756 58.7304 111.086 58.7304C114.007 58.7304 116.577 58.3506 118.797 57.5912C121.017 56.8317 123.004 55.8386 124.756 54.6118C126.509 53.3849 128.057 52.0705 129.401 50.6684V66.6171C126.947 68.545 124.26 70.0639 121.339 71.1739C118.418 72.2839 114.708 72.8389 110.21 72.8389C105.302 72.8389 100.775 72.0794 96.6268 70.5605C92.479 69.0415 88.9154 66.8508 85.9359 63.9882C82.9565 61.1256 80.6489 57.7372 79.0132 53.8231C77.3774 49.9089 76.5595 45.5566 76.5595 40.7662C76.5595 35.9757 77.3774 31.6234 79.0132 27.7093C80.6489 23.7951 82.9565 20.4067 85.9359 17.5442C88.9154 14.6816 92.479 12.4908 96.6268 10.9719C100.775 9.45296 105.302 8.6935 110.21 8.6935C114.708 8.6935 118.418 9.24849 121.339 10.3585C124.26 11.4685 126.947 12.9874 129.401 14.9152V30.864C128.057 29.4619 126.509 28.1474 124.756 26.9206C123.004 25.6353 121.017 24.6422 118.797 23.9412C116.577 23.1817 114.007 22.802 111.086 22.802C107.756 22.802 104.689 23.503 101.885 24.9051C99.1389 26.3072 96.9189 28.3519 95.2248 31.0392C93.5306 33.7265 92.6835 36.9689 92.6835 40.7662Z" fill="#236547"/>
</g>
<mask id="mask1_11_11562" style="mask-type:alpha" maskUnits="userSpaceOnUse" x="28" y="4" width="104" height="27">
<rect x="28.8236" y="4.64697" width="102.235" height="25.5588" fill="#D9D9D9"/>
</mask>
<g mask="url(#mask1_11_11562)">
<path d="M29.1741 23.3278V10.0956H77.7213V23.3278H60.8087V71.4368H45.9991V23.3278H29.1741ZM92.6835 40.7662C92.6835 44.5051 93.5306 47.7474 95.2248 50.4931C96.9189 53.1805 99.1389 55.2252 101.885 56.6273C104.689 58.0293 107.756 58.7304 111.086 58.7304C114.007 58.7304 116.577 58.3506 118.797 57.5912C121.017 56.8317 123.004 55.8386 124.756 54.6118C126.509 53.3849 128.057 52.0705 129.401 50.6684V66.6171C126.947 68.545 124.26 70.0639 121.339 71.1739C118.418 72.2839 114.708 72.8389 110.21 72.8389C105.302 72.8389 100.775 72.0794 96.6268 70.5605C92.479 69.0415 88.9154 66.8508 85.9359 63.9882C82.9565 61.1256 80.6489 57.7372 79.0132 53.8231C77.3774 49.9089 76.5595 45.5566 76.5595 40.7662C76.5595 35.9757 77.3774 31.6234 79.0132 27.7093C80.6489 23.7951 82.9565 20.4067 85.9359 17.5442C88.9154 14.6816 92.479 12.4908 96.6268 10.9719C100.775 9.45296 105.302 8.6935 110.21 8.6935C114.708 8.6935 118.418 9.24849 121.339 10.3585C124.26 11.4685 126.947 12.9874 129.401 14.9152V30.864C128.057 29.4619 126.509 28.1474 124.756 26.9206C123.004 25.6353 121.017 24.6422 118.797 23.9412C116.577 23.1817 114.007 22.802 111.086 22.802C107.756 22.802 104.689 23.503 101.885 24.9051C99.1389 26.3072 96.9189 28.3519 95.2248 31.0392C93.5306 33.7265 92.6835 36.9689 92.6835 40.7662Z" fill="#964B00"/>
</g>
<path d="M32.4749 36.9584V34.1105H41.53V36.9584H38.609V44.334H35.3959V36.9584H32.4749ZM42.0429 35.2496C42.0429 34.8212 42.1938 34.4756 42.4956 34.2127C42.8072 33.9498 43.1821 33.8184 43.6202 33.8184C44.0584 33.8184 44.4284 33.9498 44.7302 34.2127C45.0418 34.4756 45.1976 34.8212 45.1976 35.2496C45.1976 35.6781 45.0418 36.0237 44.7302 36.2866C44.4284 36.5495 44.0584 36.6809 43.6202 36.6809C43.1821 36.6809 42.8072 36.5495 42.4956 36.2866C42.1938 36.0237 42.0429 35.6781 42.0429 35.2496ZM42.2473 37.6157H44.9785V44.334H42.2473V37.6157ZM57.3217 39.9525V44.334H54.4737V40.2446C54.4737 39.9427 54.4299 39.7091 54.3423 39.5435C54.2546 39.3683 54.0988 39.2806 53.8749 39.2806C53.7581 39.2806 53.6509 39.3147 53.5536 39.3829C53.4562 39.451 53.3783 39.5581 53.3199 39.7042C53.2615 39.8405 53.2323 40.0206 53.2323 40.2446V44.334H50.3843V40.2446C50.3843 39.9427 50.3405 39.7091 50.2528 39.5435C50.1652 39.3683 50.0094 39.2806 49.7855 39.2806C49.6686 39.2806 49.5615 39.3147 49.4642 39.3829C49.3668 39.451 49.2889 39.5581 49.2305 39.7042C49.1721 39.8405 49.1429 40.0206 49.1429 40.2446V44.334H46.4409V37.6157H49.1429V38.6234C49.3279 38.2729 49.5859 37.9905 49.9169 37.7763C50.248 37.5621 50.6569 37.455 51.1437 37.455C51.6987 37.455 52.1223 37.5426 52.4144 37.7179C52.7162 37.8834 52.9304 38.1366 53.057 38.4774C53.3102 38.1658 53.6217 37.9175 53.9917 37.7325C54.3617 37.5475 54.7755 37.455 55.2332 37.455C55.7979 37.455 56.2263 37.5524 56.5184 37.7471C56.8202 37.9418 57.0296 38.2242 57.1464 38.5942C57.2633 38.9642 57.3217 39.417 57.3217 39.9525ZM61.6262 32.9421V44.334H58.7782V32.9421H61.6262ZM67.03 40.9748C67.03 41.744 66.8743 42.3915 66.5627 42.9173C66.2608 43.4333 65.8714 43.8228 65.3943 44.0857C64.9269 44.3486 64.4352 44.48 63.9192 44.48C63.3642 44.48 62.8627 44.3389 62.4148 44.0565C61.967 43.7741 61.6116 43.3701 61.3487 42.8443C61.0858 42.3185 60.9543 41.6953 60.9543 40.9748C60.9543 40.2446 61.0858 39.6214 61.3487 39.1054C61.6116 38.5796 61.967 38.1755 62.4148 37.8932C62.8627 37.6108 63.3642 37.4696 63.9192 37.4696C64.4352 37.4696 64.9269 37.6011 65.3943 37.864C65.8714 38.1268 66.2608 38.5163 66.5627 39.0324C66.8743 39.5484 67.03 40.1959 67.03 40.9748ZM64.0214 40.9748C64.0214 40.7217 63.9678 40.4977 63.8607 40.303C63.7536 40.1083 63.6076 39.9525 63.4226 39.8356C63.2473 39.7188 63.0477 39.6604 62.8238 39.6604C62.6291 39.6604 62.4392 39.7139 62.2542 39.821C62.0692 39.9281 61.9183 40.079 61.8014 40.2738C61.6846 40.4685 61.6262 40.7022 61.6262 40.9748C61.6262 41.2475 61.6846 41.4811 61.8014 41.6759C61.9183 41.8706 62.0692 42.0215 62.2542 42.1286C62.4392 42.2357 62.6291 42.2893 62.8238 42.2893C63.0477 42.2893 63.2473 42.2309 63.4226 42.114C63.6076 41.9972 63.7536 41.8414 63.8607 41.6467C63.9678 41.4422 64.0214 41.2182 64.0214 40.9748ZM71.1856 41.7051C71.1856 42.0069 71.2294 42.2455 71.3171 42.4207C71.4047 42.5862 71.5946 42.669 71.8867 42.669C72.0619 42.669 72.208 42.6349 72.3248 42.5668C72.4514 42.4986 72.5488 42.3964 72.6169 42.2601C72.6851 42.114 72.7192 41.929 72.7192 41.7051V37.6157H75.5671V44.334H72.7192V43.3554C72.5342 43.6962 72.2713 43.9737 71.9305 44.1879C71.5994 44.3924 71.171 44.4946 70.6452 44.4946C69.73 44.4946 69.0922 44.2804 68.732 43.852C68.3717 43.4139 68.1916 42.7956 68.1916 41.9972V37.6157H71.1856V41.7051ZM84.6555 39.2222C84.6555 39.748 84.7723 40.191 85.006 40.5513C85.2494 40.9018 85.5659 41.1647 85.9553 41.34C86.3545 41.5152 86.7927 41.6028 87.2698 41.6028C87.7566 41.6028 88.1753 41.5396 88.5258 41.413C88.8763 41.2864 89.183 41.1306 89.4459 40.9456C89.7186 40.7509 89.962 40.5513 90.1762 40.3468V43.6475C89.777 43.9202 89.3388 44.149 88.8617 44.334C88.3944 44.5287 87.7858 44.6261 87.0361 44.6261C86.1501 44.6261 85.3419 44.4995 84.6117 44.2464C83.8814 43.9932 83.2583 43.6281 82.7422 43.151C82.2262 42.6739 81.827 42.1043 81.5446 41.4422C81.2622 40.7801 81.1211 40.0401 81.1211 39.2222C81.1211 38.4043 81.2622 37.6643 81.5446 37.0023C81.827 36.3402 82.2262 35.7706 82.7422 35.2935C83.2583 34.8164 83.8814 34.4512 84.6117 34.1981C85.3419 33.9449 86.1501 33.8184 87.0361 33.8184C87.7858 33.8184 88.3944 33.9109 88.8617 34.0958C89.3388 34.2808 89.777 34.5145 90.1762 34.7969V38.0976C89.962 37.8932 89.7186 37.6936 89.4459 37.4988C89.183 37.3041 88.8763 37.1483 88.5258 37.0315C88.1753 36.9049 87.7566 36.8416 87.2698 36.8416C86.7927 36.8416 86.3545 36.9292 85.9553 37.1045C85.5659 37.2797 85.2494 37.5475 85.006 37.9078C84.7723 38.2583 84.6555 38.6964 84.6555 39.2222ZM91.7822 32.9421H94.6301V44.334H91.7822V32.9421ZM95.7974 40.9748C95.7974 40.2446 95.9727 39.6166 96.3232 39.0908C96.6737 38.565 97.1557 38.1609 97.7691 37.8786C98.3825 37.5962 99.0787 37.455 99.8576 37.455C100.637 37.455 101.333 37.5962 101.946 37.8786C102.56 38.1609 103.042 38.565 103.392 39.0908C103.743 39.6166 103.918 40.2446 103.918 40.9748C103.918 41.6953 103.743 42.3185 103.392 42.8443C103.042 43.3701 102.56 43.7741 101.946 44.0565C101.333 44.3389 100.637 44.48 99.8576 44.48C99.0787 44.48 98.3825 44.3389 97.7691 44.0565C97.1557 43.7741 96.6737 43.3701 96.3232 42.8443C95.9727 42.3185 95.7974 41.6953 95.7974 40.9748ZM98.733 40.9748C98.733 41.2475 98.7866 41.4763 98.8937 41.6613C99.0008 41.8463 99.1371 41.9874 99.3026 42.0848C99.4779 42.1724 99.6629 42.2163 99.8576 42.2163C100.052 42.2163 100.232 42.1724 100.398 42.0848C100.573 41.9874 100.714 41.8463 100.822 41.6613C100.929 41.4763 100.982 41.2475 100.982 40.9748C100.982 40.7022 100.929 40.4734 100.822 40.2884C100.714 40.1034 100.573 39.9622 100.398 39.8648C100.232 39.7675 100.052 39.7188 99.8576 39.7188C99.6629 39.7188 99.4779 39.7675 99.3026 39.8648C99.1371 39.9622 99.0008 40.1034 98.8937 40.2884C98.7866 40.4734 98.733 40.7022 98.733 40.9748ZM108.083 41.7051C108.083 42.0069 108.127 42.2455 108.215 42.4207C108.302 42.5862 108.492 42.669 108.784 42.669C108.96 42.669 109.106 42.6349 109.223 42.5668C109.349 42.4986 109.446 42.3964 109.515 42.2601C109.583 42.114 109.617 41.929 109.617 41.7051V37.6157H112.465V44.334H109.617V43.3554C109.432 43.6962 109.169 43.9737 108.828 44.1879C108.497 44.3924 108.069 44.4946 107.543 44.4946C106.628 44.4946 105.99 44.2804 105.63 43.852C105.269 43.4139 105.089 42.7956 105.089 41.9972V37.6157H108.083V41.7051ZM119.044 32.9421H121.892V44.334H119.044V32.9421ZM113.64 40.9748C113.64 40.1959 113.791 39.5484 114.093 39.0324C114.404 38.5163 114.799 38.1268 115.276 37.864C115.753 37.6011 116.245 37.4696 116.751 37.4696C117.316 37.4696 117.817 37.6108 118.255 37.8932C118.703 38.1755 119.059 38.5796 119.321 39.1054C119.584 39.6214 119.716 40.2446 119.716 40.9748C119.716 41.6953 119.584 42.3185 119.321 42.8443C119.059 43.3701 118.703 43.7741 118.255 44.0565C117.817 44.3389 117.316 44.48 116.751 44.48C116.245 44.48 115.753 44.3486 115.276 44.0857C114.799 43.8228 114.404 43.4333 114.093 42.9173C113.791 42.3915 113.64 41.744 113.64 40.9748ZM116.649 40.9748C116.649 41.2182 116.702 41.4422 116.809 41.6467C116.916 41.8414 117.063 41.9972 117.248 42.114C117.433 42.2309 117.632 42.2893 117.846 42.2893C118.041 42.2893 118.231 42.2357 118.416 42.1286C118.601 42.0215 118.752 41.8706 118.869 41.6759C118.986 41.4811 119.044 41.2475 119.044 40.9748C119.044 40.7022 118.986 40.4685 118.869 40.2738C118.752 40.079 118.601 39.9281 118.416 39.821C118.231 39.7139 118.041 39.6604 117.846 39.6604C117.632 39.6604 117.433 39.7188 117.248 39.8356C117.063 39.9525 116.916 40.1083 116.809 40.303C116.702 40.4977 116.649 40.7217 116.649 40.9748Z" fill="#222222"/>
</svg>
