<svg width="72" height="34" viewBox="0 0 72 34" fill="none" xmlns="http://www.w3.org/2000/svg">
<rect x="0.5" y="0.5" width="71" height="33" stroke="#964B00"/>
<mask id="mask0_8_11483" style="mask-type:alpha" maskUnits="userSpaceOnUse" x="12" y="20" width="44" height="12">
<rect x="12" y="20.8571" width="44" height="11" fill="#D9D9D9"/>
</mask>
<g mask="url(#mask0_8_11483)">
<path d="M12.1509 10.7234V5.02852H33.0446V10.7234H25.7657V31.4285H19.392V10.7234H12.1509ZM39.484 18.2285C39.484 19.8377 39.8486 21.2331 40.5777 22.4148C41.3069 23.5714 42.2623 24.4514 43.444 25.0548C44.6509 25.6582 45.9709 25.96 47.404 25.96C48.6611 25.96 49.7674 25.7965 50.7229 25.4697C51.6783 25.1428 52.5331 24.7154 53.2874 24.1874C54.0417 23.6594 54.708 23.0937 55.2863 22.4902V29.3542C54.2303 30.184 53.0737 30.8377 51.8166 31.3154C50.5594 31.7931 48.9629 32.032 47.0269 32.032C44.9149 32.032 42.9663 31.7051 41.1811 31.0514C39.396 30.3977 37.8623 29.4548 36.58 28.2228C35.2977 26.9908 34.3046 25.5325 33.6006 23.848C32.8966 22.1634 32.5446 20.2902 32.5446 18.2285C32.5446 16.1668 32.8966 14.2937 33.6006 12.6091C34.3046 10.9245 35.2977 9.46624 36.58 8.23424C37.8623 7.00224 39.396 6.05938 41.1811 5.40567C42.9663 4.75195 44.9149 4.42509 47.0269 4.42509C48.9629 4.42509 50.5594 4.66395 51.8166 5.14167C53.0737 5.61938 54.2303 6.27309 55.2863 7.10281V13.9668C54.708 13.3634 54.0417 12.7977 53.2874 12.2697C52.5331 11.7165 51.6783 11.2891 50.7229 10.9874C49.7674 10.6605 48.6611 10.4971 47.404 10.4971C45.9709 10.4971 44.6509 10.7988 43.444 11.4022C42.2623 12.0057 41.3069 12.8857 40.5777 14.0422C39.8486 15.1988 39.484 16.5942 39.484 18.2285Z" fill="#236547"/>
</g>
<mask id="mask1_8_11483" style="mask-type:alpha" maskUnits="userSpaceOnUse" x="12" y="2" width="44" height="11">
<rect x="12" y="2" width="44" height="11" fill="#D9D9D9"/>
</mask>
<g mask="url(#mask1_8_11483)">
<path d="M12.1509 10.7234V5.02852H33.0446V10.7234H25.7657V31.4285H19.392V10.7234H12.1509ZM39.484 18.2285C39.484 19.8377 39.8486 21.2331 40.5777 22.4148C41.3069 23.5714 42.2623 24.4514 43.444 25.0548C44.6509 25.6582 45.9709 25.96 47.404 25.96C48.6611 25.96 49.7674 25.7965 50.7229 25.4697C51.6783 25.1428 52.5331 24.7154 53.2874 24.1874C54.0417 23.6594 54.708 23.0937 55.2863 22.4902V29.3542C54.2303 30.184 53.0737 30.8377 51.8166 31.3154C50.5594 31.7931 48.9629 32.032 47.0269 32.032C44.9149 32.032 42.9663 31.7051 41.1811 31.0514C39.396 30.3977 37.8623 29.4548 36.58 28.2228C35.2977 26.9908 34.3046 25.5325 33.6006 23.848C32.8966 22.1634 32.5446 20.2902 32.5446 18.2285C32.5446 16.1668 32.8966 14.2937 33.6006 12.6091C34.3046 10.9245 35.2977 9.46624 36.58 8.23424C37.8623 7.00224 39.396 6.05938 41.1811 5.40567C42.9663 4.75195 44.9149 4.42509 47.0269 4.42509C48.9629 4.42509 50.5594 4.66395 51.8166 5.14167C53.0737 5.61938 54.2303 6.27309 55.2863 7.10281V13.9668C54.708 13.3634 54.0417 12.7977 53.2874 12.2697C52.5331 11.7165 51.6783 11.2891 50.7229 10.9874C49.7674 10.6605 48.6611 10.4971 47.404 10.4971C45.9709 10.4971 44.6509 10.7988 43.444 11.4022C42.2623 12.0057 41.3069 12.8857 40.5777 14.0422C39.8486 15.1988 39.484 16.5942 39.484 18.2285Z" fill="#964B00"/>
</g>
<path d="M13.5714 16.2543V15.0286H17.4686V16.2543H16.2114V19.4286H14.8286V16.2543H13.5714ZM17.6893 15.5188C17.6893 15.3345 17.7542 15.1857 17.8841 15.0726C18.0182 14.9594 18.1796 14.9028 18.3681 14.9028C18.5567 14.9028 18.716 14.9594 18.8459 15.0726C18.98 15.1857 19.047 15.3345 19.047 15.5188C19.047 15.7032 18.98 15.852 18.8459 15.9651C18.716 16.0783 18.5567 16.1348 18.3681 16.1348C18.1796 16.1348 18.0182 16.0783 17.8841 15.9651C17.7542 15.852 17.6893 15.7032 17.6893 15.5188ZM17.7773 16.5371H18.9527V19.4286H17.7773V16.5371ZM24.265 17.5428V19.4286H23.0393V17.6686C23.0393 17.5387 23.0204 17.4381 22.9827 17.3668C22.945 17.2914 22.8779 17.2537 22.7816 17.2537C22.7313 17.2537 22.6852 17.2684 22.6433 17.2977C22.6014 17.327 22.5678 17.3731 22.5427 17.436C22.5176 17.4947 22.505 17.5722 22.505 17.6686V19.4286H21.2793V17.6686C21.2793 17.5387 21.2604 17.4381 21.2227 17.3668C21.185 17.2914 21.1179 17.2537 21.0216 17.2537C20.9713 17.2537 20.9252 17.2684 20.8833 17.2977C20.8414 17.327 20.8078 17.3731 20.7827 17.436C20.7576 17.4947 20.745 17.5722 20.745 17.6686V19.4286H19.5821V16.5371H20.745V16.9708C20.8246 16.82 20.9356 16.6985 21.0781 16.6063C21.2206 16.5141 21.3966 16.468 21.6061 16.468C21.845 16.468 22.0273 16.5057 22.153 16.5811C22.2829 16.6524 22.3751 16.7613 22.4296 16.908C22.5385 16.7739 22.6726 16.667 22.8318 16.5874C22.9911 16.5078 23.1692 16.468 23.3661 16.468C23.6092 16.468 23.7936 16.5099 23.9193 16.5937C24.0492 16.6775 24.1393 16.799 24.1896 16.9583C24.2398 17.1175 24.265 17.3124 24.265 17.5428ZM26.1175 14.5257V19.4286H24.8918V14.5257H26.1175ZM28.4433 17.9828C28.4433 18.3139 28.3762 18.5926 28.2421 18.8188C28.1122 19.0409 27.9446 19.2086 27.7393 19.3217C27.5381 19.4348 27.3265 19.4914 27.1044 19.4914C26.8655 19.4914 26.6497 19.4307 26.457 19.3091C26.2642 19.1876 26.1113 19.0137 25.9981 18.7874C25.885 18.5611 25.8284 18.2929 25.8284 17.9828C25.8284 17.6686 25.885 17.4004 25.9981 17.1783C26.1113 16.952 26.2642 16.7781 26.457 16.6566C26.6497 16.535 26.8655 16.4743 27.1044 16.4743C27.3265 16.4743 27.5381 16.5308 27.7393 16.644C27.9446 16.7571 28.1122 16.9247 28.2421 17.1468C28.3762 17.3689 28.4433 17.6476 28.4433 17.9828ZM27.1484 17.9828C27.1484 17.8739 27.1254 17.7775 27.0793 17.6937C27.0332 17.6099 26.9703 17.5428 26.8907 17.4926C26.8153 17.4423 26.7294 17.4171 26.633 17.4171C26.5492 17.4171 26.4675 17.4402 26.3878 17.4863C26.3082 17.5324 26.2433 17.5973 26.193 17.6811C26.1427 17.7649 26.1175 17.8655 26.1175 17.9828C26.1175 18.1002 26.1427 18.2007 26.193 18.2846C26.2433 18.3684 26.3082 18.4333 26.3878 18.4794C26.4675 18.5255 26.5492 18.5486 26.633 18.5486C26.7294 18.5486 26.8153 18.5234 26.8907 18.4731C26.9703 18.4228 27.0332 18.3558 27.0793 18.272C27.1254 18.184 27.1484 18.0876 27.1484 17.9828ZM30.2317 18.2971C30.2317 18.427 30.2506 18.5297 30.2883 18.6051C30.326 18.6764 30.4077 18.712 30.5335 18.712C30.6089 18.712 30.6717 18.6973 30.722 18.668C30.7765 18.6387 30.8184 18.5947 30.8477 18.536C30.8771 18.4731 30.8917 18.3935 30.8917 18.2971V16.5371H32.1175V19.4286H30.8917V19.0074C30.8121 19.1541 30.699 19.2735 30.5523 19.3657C30.4098 19.4537 30.2255 19.4977 29.9992 19.4977C29.6053 19.4977 29.3308 19.4055 29.1757 19.2211C29.0207 19.0326 28.9432 18.7665 28.9432 18.4228V16.5371H30.2317V18.2971ZM36.0289 17.2286C36.0289 17.4548 36.0792 17.6455 36.1797 17.8006C36.2845 17.9514 36.4207 18.0646 36.5883 18.14C36.7601 18.2154 36.9487 18.2531 37.154 18.2531C37.3636 18.2531 37.5437 18.2259 37.6946 18.1714C37.8455 18.1169 37.9775 18.0499 38.0906 17.9703C38.2079 17.8865 38.3127 17.8006 38.4049 17.7126V19.1331C38.2331 19.2505 38.0445 19.3489 37.8392 19.4286C37.638 19.5124 37.3761 19.5543 37.0535 19.5543C36.6721 19.5543 36.3243 19.4998 36.01 19.3908C35.6957 19.2819 35.4276 19.1247 35.2055 18.9194C34.9834 18.7141 34.8116 18.4689 34.69 18.184C34.5685 17.899 34.5077 17.5806 34.5077 17.2286C34.5077 16.8766 34.5685 16.5581 34.69 16.2731C34.8116 15.9882 34.9834 15.743 35.2055 15.5377C35.4276 15.3324 35.6957 15.1752 36.01 15.0663C36.3243 14.9573 36.6721 14.9028 37.0535 14.9028C37.3761 14.9028 37.638 14.9427 37.8392 15.0223C38.0445 15.1019 38.2331 15.2025 38.4049 15.324V16.7446C38.3127 16.6566 38.2079 16.5707 38.0906 16.4868C37.9775 16.403 37.8455 16.336 37.6946 16.2857C37.5437 16.2312 37.3636 16.204 37.154 16.204C36.9487 16.204 36.7601 16.2417 36.5883 16.3171C36.4207 16.3926 36.2845 16.5078 36.1797 16.6628C36.0792 16.8137 36.0289 17.0023 36.0289 17.2286ZM39.0961 14.5257H40.3218V19.4286H39.0961V14.5257ZM40.8242 17.9828C40.8242 17.6686 40.8996 17.3983 41.0504 17.172C41.2013 16.9457 41.4087 16.7718 41.6727 16.6503C41.9367 16.5287 42.2363 16.468 42.5716 16.468C42.9068 16.468 43.2064 16.5287 43.4704 16.6503C43.7344 16.7718 43.9419 16.9457 44.0927 17.172C44.2436 17.3983 44.319 17.6686 44.319 17.9828C44.319 18.2929 44.2436 18.5611 44.0927 18.7874C43.9419 19.0137 43.7344 19.1876 43.4704 19.3091C43.2064 19.4307 42.9068 19.4914 42.5716 19.4914C42.2363 19.4914 41.9367 19.4307 41.6727 19.3091C41.4087 19.1876 41.2013 19.0137 41.0504 18.7874C40.8996 18.5611 40.8242 18.2929 40.8242 17.9828ZM42.0876 17.9828C42.0876 18.1002 42.1106 18.1987 42.1567 18.2783C42.2028 18.3579 42.2615 18.4187 42.3327 18.4606C42.4082 18.4983 42.4878 18.5171 42.5716 18.5171C42.6554 18.5171 42.7329 18.4983 42.8042 18.4606C42.8796 18.4187 42.9403 18.3579 42.9864 18.2783C43.0325 18.1987 43.0556 18.1002 43.0556 17.9828C43.0556 17.8655 43.0325 17.767 42.9864 17.6874C42.9403 17.6078 42.8796 17.547 42.8042 17.5051C42.7329 17.4632 42.6554 17.4423 42.5716 17.4423C42.4878 17.4423 42.4082 17.4632 42.3327 17.5051C42.2615 17.547 42.2028 17.6078 42.1567 17.6874C42.1106 17.767 42.0876 17.8655 42.0876 17.9828ZM46.1118 18.2971C46.1118 18.427 46.1306 18.5297 46.1683 18.6051C46.2061 18.6764 46.2878 18.712 46.4135 18.712C46.4889 18.712 46.5518 18.6973 46.6021 18.668C46.6565 18.6387 46.6984 18.5947 46.7278 18.536C46.7571 18.4731 46.7718 18.3935 46.7718 18.2971V16.5371H47.9975V19.4286H46.7718V19.0074C46.6921 19.1541 46.579 19.2735 46.4323 19.3657C46.2899 19.4537 46.1055 19.4977 45.8792 19.4977C45.4853 19.4977 45.2108 19.4055 45.0558 19.2211C44.9007 19.0326 44.8232 18.7665 44.8232 18.4228V16.5371H46.1118V18.2971ZM50.829 14.5257H52.0547V19.4286H50.829V14.5257ZM48.5033 17.9828C48.5033 17.6476 48.5682 17.3689 48.6981 17.1468C48.8322 16.9247 49.002 16.7571 49.2073 16.644C49.4126 16.5308 49.6242 16.4743 49.8421 16.4743C50.0852 16.4743 50.301 16.535 50.4896 16.6566C50.6823 16.7781 50.8353 16.952 50.9484 17.1783C51.0616 17.4004 51.1181 17.6686 51.1181 17.9828C51.1181 18.2929 51.0616 18.5611 50.9484 18.7874C50.8353 19.0137 50.6823 19.1876 50.4896 19.3091C50.301 19.4307 50.0852 19.4914 49.8421 19.4914C49.6242 19.4914 49.4126 19.4348 49.2073 19.3217C49.002 19.2086 48.8322 19.0409 48.6981 18.8188C48.5682 18.5926 48.5033 18.3139 48.5033 17.9828ZM49.7981 17.9828C49.7981 18.0876 49.8212 18.184 49.8673 18.272C49.9134 18.3558 49.9762 18.4228 50.0559 18.4731C50.1355 18.5234 50.2214 18.5486 50.3136 18.5486C50.3974 18.5486 50.4791 18.5255 50.5587 18.4794C50.6383 18.4333 50.7033 18.3684 50.7536 18.2846C50.8039 18.2007 50.829 18.1002 50.829 17.9828C50.829 17.8655 50.8039 17.7649 50.7536 17.6811C50.7033 17.5973 50.6383 17.5324 50.5587 17.4863C50.4791 17.4402 50.3974 17.4171 50.3136 17.4171C50.2214 17.4171 50.1355 17.4423 50.0559 17.4926C49.9762 17.5428 49.9134 17.6099 49.8673 17.6937C49.8212 17.7775 49.7981 17.8739 49.7981 17.9828Z" fill="#222222"/>
</svg>
