<svg width="24" height="25" viewBox="0 0 24 25" fill="none" xmlns="http://www.w3.org/2000/svg">
<path d="M11.01 20.0749C15.9861 20.0749 20.02 16.041 20.02 11.0649C20.02 6.08885 15.9861 2.05493 11.01 2.05493C6.03391 2.05493 2 6.08885 2 11.0649C2 16.041 6.03391 20.0749 11.01 20.0749Z" fill="#292D32"/>
<path d="M21.99 19.0049C21.66 18.3949 20.96 18.0549 20.02 18.0549C19.31 18.0549 18.7 18.3449 18.34 18.8449C17.98 19.3449 17.9 20.0149 18.12 20.6849C18.55 21.9849 19.3 22.2749 19.71 22.3249C19.77 22.3349 19.83 22.3349 19.9 22.3349C20.34 22.3349 21.02 22.1449 21.68 21.1549C22.21 20.3849 22.31 19.6149 21.99 19.0049Z" fill="#292D32"/>
</svg>
