<svg width="24" height="25" viewBox="0 0 24 25" fill="none" xmlns="http://www.w3.org/2000/svg">
<path d="M16.25 22.5549C17.2165 22.5549 18 21.7714 18 20.8049C18 19.8384 17.2165 19.0549 16.25 19.0549C15.2835 19.0549 14.5 19.8384 14.5 20.8049C14.5 21.7714 15.2835 22.5549 16.25 22.5549Z" fill="#292D32"/>
<path d="M8.25 22.5549C9.2165 22.5549 10 21.7714 10 20.8049C10 19.8384 9.2165 19.0549 8.25 19.0549C7.2835 19.0549 6.5 19.8384 6.5 20.8049C6.5 21.7714 7.2835 22.5549 8.25 22.5549Z" fill="#292D32"/>
<path d="M4.84 3.99493L4.64 6.44493C4.6 6.91493 4.97 7.30493 5.44 7.30493H20.75C21.17 7.30493 21.52 6.98493 21.55 6.56493C21.68 4.79493 20.33 3.35493 18.56 3.35493H6.27C6.17 2.91493 5.97 2.49493 5.66 2.14493C5.16 1.61493 4.46 1.30493 3.74 1.30493H2C1.59 1.30493 1.25 1.64493 1.25 2.05493C1.25 2.46493 1.59 2.80493 2 2.80493H3.74C4.05 2.80493 4.34 2.93493 4.55 3.15493C4.76 3.38493 4.86 3.68493 4.84 3.99493Z" fill="#292D32"/>
<path d="M20.51 8.80493H5.17001C4.75001 8.80493 4.41001 9.12493 4.37001 9.53493L4.01001 13.8849C3.87001 15.5949 5.21001 17.0549 6.92001 17.0549H18.04C19.54 17.0549 20.86 15.8249 20.97 14.3249L21.3 9.65493C21.34 9.19493 20.98 8.80493 20.51 8.80493Z" fill="#292D32"/>
</svg>
