<svg width="48" height="48" viewBox="0 0 48 48" fill="none" xmlns="http://www.w3.org/2000/svg">
<path d="M24 9.29999C14.44 9.29999 6.66 17.08 6.66 26.64C6.66 36.2 14.44 44 24 44C33.56 44 41.34 36.22 41.34 26.66C41.34 17.1 33.56 9.29999 24 9.29999ZM25.5 26C25.5 26.82 24.82 27.5 24 27.5C23.18 27.5 22.5 26.82 22.5 26V16C22.5 15.18 23.18 14.5 24 14.5C24.82 14.5 25.5 15.18 25.5 16V26Z" fill="white"/>
<path d="M29.78 6.9H18.22C17.42 6.9 16.78 6.26 16.78 5.46C16.78 4.66 17.42 4 18.22 4H29.78C30.58 4 31.22 4.64 31.22 5.44C31.22 6.24 30.58 6.9 29.78 6.9Z" fill="white"/>
</svg>
