<svg width="37" height="12" viewBox="0 0 37 12" fill="none" xmlns="http://www.w3.org/2000/svg">
<path d="M26.8968 0.46446C26.0369 0.151136 25.128 -0.00609186 24.2129 0.000180524C21.2533 0.000180524 19.1631 1.49106 19.1483 3.63118C19.1298 5.20345 20.6337 6.08947 21.7712 6.61479C22.9384 7.15491 23.3287 7.49526 23.325 7.97803C23.3176 8.71237 22.3927 9.04532 21.5326 9.04532C20.3506 9.04532 19.7051 8.8807 18.7118 8.46821L18.3437 8.29619L17.9238 10.76C18.6434 11.0597 19.94 11.3168 21.2792 11.339C24.4256 11.339 26.4825 9.85735 26.5065 7.58034C26.5324 6.32438 25.7185 5.37547 24.0057 4.59119C22.9643 4.08252 22.3188 3.74217 22.3188 3.2261C22.3188 2.76921 22.8718 2.28089 24.0279 2.28089C24.7973 2.26227 25.5619 2.40663 26.2716 2.70447L26.5491 2.82841L26.969 0.447813L26.8968 0.46446ZM34.5769 0.19995H32.2647C31.5452 0.19995 31.0032 0.397871 30.6887 1.11186L26.242 11.1855H29.3884L30.0173 9.53365L33.8573 9.53735C33.948 9.92394 34.2254 11.1855 34.2254 11.1855H37L34.5769 0.19995ZM14.8921 0.107464H17.8905L16.0149 11.0985H13.0202L14.8921 0.103765V0.107464ZM7.28051 6.1653L7.59126 7.69133L10.5212 0.19995H13.6972L8.97855 11.1707H5.80998L3.22037 1.88135C3.17842 1.72817 3.07993 1.59662 2.94476 1.51325C2.01139 1.0311 1.02243 0.665206 0 0.423765L0.0406938 0.19255H4.86662C5.52142 0.218446 6.04859 0.423766 6.22432 1.12296L7.27866 6.17085L7.28051 6.1653ZM30.8774 7.28624L32.0723 4.212C32.0575 4.24529 32.3184 3.57754 32.47 3.16506L32.6754 4.11396L33.369 7.28439H30.8756L30.8774 7.28624Z" fill="black"/>
</svg>
