<svg width="37" height="24" viewBox="0 0 37 24" fill="none" xmlns="http://www.w3.org/2000/svg">
<path d="M35.0267 0.338989H1.97333C0.883491 0.338989 0 1.22248 0 2.31232V21.6017C0 22.6915 0.883491 23.575 1.97333 23.575H35.0267C36.1165 23.575 37 22.6915 37 21.6017V2.31232C37 1.22248 36.1165 0.338989 35.0267 0.338989Z" fill="black"/>
<path d="M21.4108 11.957C21.4108 16.848 17.4458 20.8125 12.555 20.8125C7.66426 20.8125 3.69971 16.848 3.69971 11.957C3.69971 7.0664 7.66426 3.10144 12.555 3.10144C17.4458 3.10144 21.4108 7.0664 21.4108 11.957Z" fill="#D9222A"/>
<path d="M24.444 3.10144C22.1559 3.10144 20.071 3.9695 18.4993 5.3938C18.1792 5.68404 17.8804 5.99751 17.6051 6.33092H19.3943C19.6389 6.62836 19.8642 6.94122 20.0693 7.26887H16.9301C16.742 7.57001 16.5712 7.88287 16.4199 8.20662H20.5793C20.7213 8.51043 20.8467 8.82308 20.9542 9.14416H16.045C15.9426 9.44961 15.8565 9.76226 15.7876 10.0819H21.2114C21.3415 10.6862 21.4108 11.3136 21.4108 11.957C21.4108 12.9404 21.2502 13.8865 20.9542 14.77H16.045C16.1523 15.0913 16.2776 15.4041 16.4197 15.7078H20.5793C20.4276 16.0315 20.2572 16.3444 20.0689 16.6457H16.9301C17.135 16.9727 17.3607 17.286 17.6051 17.5828H19.3939C19.119 17.9169 18.82 18.2307 18.4995 18.5208C20.0712 19.9449 22.1559 20.8125 24.444 20.8125C29.3347 20.8125 33.2997 16.848 33.2997 11.957C33.2997 7.06661 29.3347 3.10144 24.444 3.10144Z" fill="#EE9F2D"/>
<path d="M32.1196 16.8932C32.1196 16.7353 32.2475 16.6071 32.4056 16.6071C32.5636 16.6071 32.6915 16.7353 32.6915 16.8932C32.6915 17.0511 32.5636 17.1793 32.4056 17.1793C32.2475 17.1793 32.1196 17.0511 32.1196 16.8932ZM32.4056 17.1107C32.5256 17.1107 32.623 17.0132 32.623 16.8932C32.623 16.7729 32.5256 16.6759 32.4056 16.6759C32.2853 16.6759 32.1883 16.7729 32.1883 16.8932C32.1883 17.0132 32.2853 17.1107 32.4056 17.1107ZM32.3669 17.019H32.3083V16.7676H32.4144C32.4366 16.7676 32.4592 16.7676 32.4787 16.7801C32.4991 16.7939 32.5106 16.8182 32.5106 16.8432C32.5106 16.8714 32.4939 16.8977 32.467 16.908L32.5133 17.019H32.4483L32.4099 16.9195H32.3669V17.019ZM32.3669 16.8763H32.3994C32.4115 16.8763 32.4243 16.8774 32.4352 16.8714C32.4448 16.8652 32.4498 16.8537 32.4498 16.8426C32.4498 16.833 32.4438 16.8219 32.4356 16.8171C32.4253 16.8108 32.4091 16.8122 32.3982 16.8122H32.3669V16.8763Z" fill="black"/>
<path d="M10.4876 12.9266C10.3866 12.9149 10.3422 12.9118 10.273 12.9118C9.72804 12.9118 9.45219 13.0986 9.45219 13.4676C9.45219 13.6952 9.58683 13.8399 9.7969 13.8399C10.1885 13.8399 10.4707 13.467 10.4876 12.9266ZM11.1867 14.5544H10.3901L10.4084 14.1757C10.1655 14.475 9.84131 14.6173 9.4008 14.6173C8.87972 14.6173 8.52246 14.2103 8.52246 13.6193C8.52246 12.7301 9.14385 12.2113 10.2105 12.2113C10.3194 12.2113 10.4592 12.2211 10.6023 12.2394C10.6321 12.119 10.6399 12.0674 10.6399 12.0026C10.6399 11.7605 10.4724 11.6702 10.0232 11.6702C9.55291 11.6649 9.16503 11.7823 9.00572 11.8347C9.01579 11.774 9.13892 11.0129 9.13892 11.0129C9.61807 10.8725 9.93401 10.8196 10.2896 10.8196C11.1151 10.8196 11.5523 11.1903 11.5515 11.8908C11.5532 12.0785 11.5221 12.3101 11.4736 12.6146C11.3902 13.1439 11.2111 14.2779 11.1867 14.5544Z" fill="black"/>
<path d="M8.12033 14.5544H7.15895L7.70963 11.1013L6.48 14.5544H5.82489L5.7439 11.121L5.16506 14.5544H4.26514L5.01685 10.0624H6.39921L6.48308 12.5767L7.32627 10.0624H8.86383L8.12033 14.5544Z" fill="black"/>
<path d="M25.6323 12.9266C25.5317 12.9149 25.4871 12.9118 25.4181 12.9118C24.8733 12.9118 24.5975 13.0986 24.5975 13.4676C24.5975 13.6952 24.7319 13.8399 24.942 13.8399C25.3336 13.8399 25.616 13.467 25.6323 12.9266ZM26.332 14.5544H25.5354L25.5535 14.1757C25.3106 14.475 24.9862 14.6173 24.5461 14.6173C24.0248 14.6173 23.668 14.2103 23.668 13.6193C23.668 12.7301 24.289 12.2113 25.3558 12.2113C25.4647 12.2113 25.6043 12.2211 25.7472 12.2394C25.777 12.119 25.7848 12.0674 25.7848 12.0026C25.7848 11.7605 25.6175 11.6702 25.1683 11.6702C24.698 11.6649 24.3105 11.7823 24.1506 11.8347C24.1607 11.774 24.2842 11.0129 24.2842 11.0129C24.7634 10.8725 25.0791 10.8196 25.4343 10.8196C26.2602 10.8196 26.6974 11.1903 26.6966 11.8908C26.6983 12.0785 26.6672 12.3101 26.6187 12.6146C26.5357 13.1439 26.3562 14.2779 26.332 14.5544Z" fill="black"/>
<path d="M15.4596 14.4989C15.1965 14.5817 14.9914 14.6173 14.769 14.6173C14.2775 14.6173 14.0092 14.3348 14.0092 13.8148C14.0022 13.6534 14.0799 13.2287 14.141 12.8411C14.1965 12.4998 14.5579 10.3483 14.5579 10.3483H15.5135L15.4019 10.9012H15.9791L15.8487 11.7792H15.2695C15.1585 12.4739 15.0004 13.3393 14.9986 13.454C14.9986 13.6423 15.0991 13.7245 15.3277 13.7245C15.4372 13.7245 15.5221 13.7134 15.5869 13.69L15.4596 14.4989Z" fill="black"/>
<path d="M18.3893 14.4693C18.0611 14.5696 17.7443 14.6181 17.4086 14.6173C16.3389 14.6163 15.7812 14.0576 15.7812 12.9876C15.7812 11.7389 16.4906 10.8196 17.4536 10.8196C18.2415 10.8196 18.7447 11.3344 18.7447 12.1416C18.7447 12.4094 18.7102 12.6709 18.627 13.0401H16.7239C16.6596 13.57 16.9988 13.7907 17.5546 13.7907C17.8966 13.7907 18.2052 13.7202 18.5482 13.5607L18.3893 14.4693ZM17.8522 12.3035C17.8576 12.2275 17.9536 11.6515 17.4076 11.6515C17.1032 11.6515 16.8855 11.8836 16.7969 12.3035H17.8522Z" fill="black"/>
<path d="M11.7632 12.0561C11.7632 12.5181 11.9873 12.8368 12.4954 13.076C12.8848 13.259 12.945 13.3132 12.945 13.4791C12.945 13.7069 12.7733 13.8097 12.3929 13.8097C12.1061 13.8097 11.8393 13.7648 11.5316 13.6656C11.5316 13.6656 11.4052 14.4707 11.3994 14.5092C11.6179 14.5568 11.8128 14.601 12.3999 14.6173C13.4143 14.6173 13.8827 14.231 13.8827 13.3963C13.8827 12.8943 13.6866 12.5998 13.205 12.3784C12.8019 12.1934 12.7557 12.1521 12.7557 11.9814C12.7557 11.7839 12.9154 11.6832 13.2262 11.6832C13.4149 11.6832 13.6727 11.7033 13.9169 11.7381L14.0538 10.8908C13.8048 10.8513 13.4274 10.8196 13.2077 10.8196C12.1322 10.8196 11.76 11.3814 11.7632 12.0561Z" fill="black"/>
<path d="M23.0651 10.9156C23.3321 10.9156 23.581 10.9857 23.9241 11.1584L24.0814 10.1835C23.9406 10.1282 23.4448 9.80359 23.0248 9.80359C22.3814 9.80359 21.8375 10.1228 21.455 10.6497C20.8971 10.4649 20.6677 10.8384 20.3865 11.2104L20.1368 11.2686C20.1557 11.1461 20.1727 11.0244 20.167 10.9013H19.2841C19.1634 12.0318 18.9497 13.177 18.7823 14.309L18.7388 14.5544H19.7006C19.8611 13.5114 19.9491 12.8435 20.0025 12.3915L20.3647 12.1901C20.4188 11.9888 20.5882 11.9208 20.9279 11.929C20.8835 12.1675 20.8597 12.4183 20.8597 12.6781C20.8597 13.8732 21.5045 14.6173 22.5395 14.6173C22.8061 14.6173 23.0349 14.5821 23.3891 14.4861L23.5582 13.4621C23.2396 13.6189 22.9781 13.6927 22.7413 13.6927C22.1824 13.6927 21.8443 13.2801 21.8443 12.5983C21.8443 11.6092 22.3473 10.9156 23.0651 10.9156Z" fill="black"/>
<path d="M8.39719 14.2876H7.4356L7.98669 10.8348L6.75706 14.2876H6.10175L6.02076 10.8546L5.44191 14.2876H4.54199L5.29371 9.79617H6.67607L6.71492 12.5767L7.64753 9.79617H9.14068L8.39719 14.2876Z" fill="white"/>
<path d="M31.2044 10.0624L30.9913 11.3603C30.7284 11.0143 30.4459 10.7639 30.0731 10.7639C29.588 10.7639 29.1464 11.1317 28.8574 11.6729C28.4549 11.5895 28.0387 11.4478 28.0387 11.4478L28.0385 11.4511C28.071 11.1485 28.0839 10.9639 28.081 10.9013H27.198C27.0777 12.0318 26.8639 13.177 26.6968 14.3089L26.6528 14.5544H27.6144C27.7443 13.711 27.8438 13.0107 27.917 12.4553C28.2455 12.1584 28.4099 11.8994 28.7419 11.9167C28.5949 12.2721 28.5088 12.6816 28.5088 13.1015C28.5088 14.0148 28.9709 14.6173 29.6698 14.6173C30.0221 14.6173 30.2924 14.4958 30.5561 14.2142L30.5111 14.5538H31.4205L32.1527 10.0624H31.2044ZM30.0022 13.7102C29.6749 13.7102 29.5096 13.468 29.5096 12.9901C29.5096 12.2721 29.819 11.7629 30.2552 11.7629C30.5855 11.7629 30.7644 12.0147 30.7644 12.4787C30.7644 13.2029 30.4501 13.7102 30.0022 13.7102Z" fill="black"/>
<path d="M10.764 12.6604C10.6633 12.6487 10.6187 12.6456 10.5496 12.6456C10.0047 12.6456 9.72904 12.8325 9.72904 13.2014C9.72904 13.4286 9.86368 13.5737 10.0733 13.5737C10.4653 13.5737 10.7476 13.2008 10.764 12.6604ZM11.4635 14.2876H10.667L10.6851 13.9096C10.4423 14.2082 10.1177 14.3511 9.67766 14.3511C9.15637 14.3511 8.79932 13.9441 8.79932 13.3531C8.79932 12.4635 9.4205 11.9451 10.4873 11.9451C10.5963 11.9451 10.7361 11.9549 10.8789 11.9732C10.9087 11.8528 10.9165 11.8012 10.9165 11.736C10.9165 11.4939 10.7492 11.404 10.3001 11.404C9.82956 11.3987 9.44188 11.5161 9.28237 11.5679C9.29244 11.5074 9.41557 10.7471 9.41557 10.7471C9.89452 10.6061 10.2109 10.5533 10.5661 10.5533C11.3918 10.5533 11.8292 10.9241 11.8284 11.624C11.8298 11.8125 11.7986 12.0439 11.7503 12.348C11.667 12.8771 11.4878 14.0117 11.4635 14.2876Z" fill="white"/>
<path d="M24.3581 9.91705L24.2007 10.8922C23.8578 10.7197 23.6087 10.6494 23.3418 10.6494C22.624 10.6494 22.1208 11.343 22.1208 12.3321C22.1208 13.014 22.4592 13.4263 23.0179 13.4263C23.2547 13.4263 23.5159 13.3527 23.8346 13.1957L23.6658 14.2193C23.3114 14.3159 23.0828 14.3511 22.816 14.3511C21.7813 14.3511 21.1362 13.607 21.1362 12.4119C21.1362 10.8061 22.0271 9.68375 23.3013 9.68375C23.7211 9.68375 24.2171 9.86176 24.3581 9.91705Z" fill="white"/>
<path d="M25.9095 12.6604C25.8088 12.6487 25.7644 12.6456 25.6951 12.6456C25.1504 12.6456 24.8746 12.8325 24.8746 13.2014C24.8746 13.4286 25.0092 13.5737 25.2191 13.5737C25.6106 13.5737 25.8931 13.2008 25.9095 12.6604ZM26.609 14.2876H25.8123L25.8306 13.9096C25.5876 14.2082 25.2633 14.3511 24.8232 14.3511C24.3021 14.3511 23.9448 13.9441 23.9448 13.3531C23.9448 12.4635 24.5662 11.9451 25.6326 11.9451C25.7418 11.9451 25.8814 11.9549 26.0244 11.9732C26.054 11.8528 26.062 11.8012 26.062 11.736C26.062 11.4939 25.8947 11.404 25.4456 11.404C24.9753 11.3987 24.5874 11.5161 24.4279 11.5679C24.438 11.5074 24.5613 10.7471 24.5613 10.7471C25.0402 10.6061 25.3564 10.5533 25.7116 10.5533C26.5375 10.5533 26.9747 10.9241 26.9737 11.624C26.9753 11.8125 26.9443 12.0439 26.8958 12.348C26.8127 12.8771 26.6331 14.0117 26.609 14.2876Z" fill="white"/>
<path d="M15.736 14.2323C15.4727 14.3151 15.2675 14.3511 15.0453 14.3511C14.5538 14.3511 14.2856 14.0687 14.2856 13.5486C14.2788 13.3868 14.3565 12.9626 14.4175 12.5749C14.4728 12.2333 14.8342 10.0819 14.8342 10.0819H15.7896L15.6782 10.6351H16.1687L16.0381 11.5126H15.546C15.435 12.2078 15.2766 13.0725 15.2749 13.1874C15.2749 13.3763 15.3756 13.458 15.604 13.458C15.7136 13.458 15.7983 13.4473 15.8632 13.4238L15.736 14.2323Z" fill="white"/>
<path d="M18.6662 14.2031C18.3381 14.3034 18.021 14.3517 17.6855 14.3511C16.6158 14.3501 16.0581 13.7914 16.0581 12.7215C16.0581 11.4723 16.7675 10.5533 17.7305 10.5533C18.5184 10.5533 19.0216 11.0678 19.0216 11.8754C19.0216 12.1434 18.9871 12.4049 18.904 12.7739H17.001C16.9366 13.3038 17.2758 13.5248 17.8316 13.5248C18.1735 13.5248 18.4822 13.4541 18.8251 13.2941L18.6662 14.2031ZM18.1289 12.0367C18.1346 11.9609 18.2304 11.3847 17.6843 11.3847C17.38 11.3847 17.1623 11.6174 17.0738 12.0367H18.1289Z" fill="white"/>
<path d="M12.0399 11.7899C12.0399 12.252 12.264 12.5702 12.7721 12.8098C13.1614 12.9928 13.2216 13.0473 13.2216 13.2129C13.2216 13.4407 13.0498 13.5435 12.6697 13.5435C12.3828 13.5435 12.116 13.4987 11.808 13.3994C11.808 13.3994 11.682 14.2045 11.6763 14.243C11.8944 14.2907 12.0894 14.3342 12.6765 14.3511C13.6911 14.3511 14.1594 13.9649 14.1594 13.1303C14.1594 12.6281 13.9635 12.3336 13.4817 12.1122C13.0788 11.9268 13.0321 11.8861 13.0321 11.7153C13.0321 11.5179 13.1922 11.4164 13.5028 11.4164C13.6913 11.4164 13.9491 11.4371 14.1937 11.4719L14.3304 10.6244C14.0817 10.5849 13.7043 10.5533 13.4845 10.5533C12.4089 10.5533 12.0368 11.1146 12.0399 11.7899Z" fill="white"/>
<path d="M31.6971 14.2876H30.7876L30.8328 13.9476C30.569 14.2296 30.2987 14.3511 29.9464 14.3511C29.2475 14.3511 28.7856 13.7486 28.7856 12.8353C28.7856 11.6203 29.502 10.596 30.3499 10.596C30.7228 10.596 31.005 10.7483 31.2677 11.0941L31.4811 9.79617H32.4293L31.6971 14.2876ZM30.279 13.4436C30.7267 13.4436 31.0412 12.9362 31.0412 12.2125C31.0412 11.7485 30.8622 11.4967 30.5318 11.4967C30.0959 11.4967 29.7861 12.0057 29.7861 12.7239C29.7861 13.2018 29.9518 13.4436 30.279 13.4436Z" fill="white"/>
<path d="M27.4745 10.6351C27.3541 11.7656 27.1403 12.9108 26.9732 14.0421L26.9292 14.2876H27.8908C28.2347 12.054 28.3179 11.6178 28.8571 11.6725C28.943 11.2153 29.103 10.8149 29.2222 10.6129C28.8195 10.529 28.5946 10.7565 28.3003 11.1888C28.3235 11.002 28.366 10.8205 28.3576 10.6351H27.4745Z" fill="white"/>
<path d="M19.5605 10.6351C19.4398 11.7656 19.226 12.9108 19.0589 14.0421L19.0151 14.2876H19.9771C20.3206 12.054 20.4037 11.6178 20.9426 11.6725C21.029 11.2153 21.1889 10.8149 21.3077 10.6129C20.9054 10.529 20.6803 10.7565 20.3862 11.1888C20.4094 11.002 20.4516 10.8205 20.4435 10.6351H19.5605Z" fill="white"/>
<path d="M32.1191 14.0016C32.1191 13.8432 32.2472 13.7155 32.4051 13.7155C32.5631 13.7155 32.691 13.8432 32.691 14.0016C32.691 14.1593 32.5631 14.2876 32.4051 14.2876C32.2472 14.2876 32.1191 14.1593 32.1191 14.0016ZM32.4051 14.2189C32.5253 14.2189 32.6223 14.1215 32.6223 14.0016C32.6223 13.8816 32.5253 13.7842 32.4051 13.7842C32.285 13.7842 32.1876 13.8816 32.1876 14.0016C32.1876 14.1215 32.285 14.2189 32.4051 14.2189ZM32.3664 14.1266H32.3078V13.8758H32.4141C32.4361 13.8758 32.4589 13.8763 32.478 13.8884C32.4986 13.9024 32.5103 13.9262 32.5103 13.9513C32.5103 13.9797 32.4937 14.0062 32.4665 14.0162L32.513 14.1266H32.4478L32.4094 14.0275H32.3664V14.1266ZM32.3664 13.9846H32.3987C32.4108 13.9846 32.424 13.9854 32.4347 13.9797C32.4443 13.9735 32.4493 13.9618 32.4493 13.9507C32.4493 13.9414 32.4435 13.9303 32.4351 13.9248C32.425 13.919 32.4084 13.9207 32.3975 13.9207H32.3664V13.9846Z" fill="white"/>
</svg>
