<svg width="48" height="48" viewBox="0 0 48 48" fill="none" xmlns="http://www.w3.org/2000/svg">
<path d="M41.94 32.16C41.46 37.5 37.6 41 32 41H14C8.48 41 4 36.52 4 31V17C4 11.56 7.28 7.76 12.38 7.12C12.9 7.04 13.44 7 14 7H32C32.52 7 33.02 7.02 33.5 7.1C38.28 7.66 41.52 11 41.94 15.84C42 16.42 41.52 16.9 40.94 16.9H37.84C35.92 16.9 34.14 17.64 32.86 18.96C31.34 20.44 30.58 22.52 30.76 24.6C31.08 28.24 34.28 31.1 38.08 31.1H40.94C41.52 31.1 42 31.58 41.94 32.16Z" fill="white"/>
<path d="M44 21.94V26.06C44 27.16 43.12 28.06 42 28.1H38.08C35.92 28.1 33.94 26.52 33.76 24.36C33.64 23.1 34.12 21.92 34.96 21.1C35.7 20.34 36.72 19.9 37.84 19.9H42C43.12 19.94 44 20.84 44 21.94Z" fill="white"/>
</svg>
